<?xml version="1.0" encoding="UTF-8"?>
<svg id="Layer_1" data-name="Layer 1" xmlns="http://www.w3.org/2000/svg" viewBox="0 0 505.9159 131.3963">
  <defs>
    <style>
      .cls-1, .cls-2, .cls-3, .cls-4, .cls-5, .cls-6, .cls-7 {
        stroke: #1d1e1c;
        stroke-miterlimit: 10;
      }

      .cls-1, .cls-3, .cls-4, .cls-7 {
        fill: #49bee0;
        stroke-width: .5px;
      }

      .cls-8, .cls-9 {
        fill: #1d1d1b;
      }

      .cls-10 {
        fill: #fff;
      }

      .cls-2, .cls-5 {
        fill: #585655;
      }

      .cls-11 {
        fill: #1d1e1c;
      }

      .cls-11, .cls-12, .cls-9 {
        fill-rule: evenodd;
      }

      .cls-3 {
        opacity: .25;
      }

      .cls-4 {
        opacity: .1;
      }

      .cls-12, .cls-13 {
        fill: #24383d;
      }

      .cls-14 {
        fill: #d8ebe6;
      }

      .cls-5 {
        stroke-width: .75px;
      }

      .cls-6 {
        fill: #666665;
      }

      .cls-7 {
        opacity: .4;
      }
    </style>
  </defs>
  <g>
    <polygon class="cls-9" points="126.4907 0 97.8434 0 65.6694 39.9727 64.9352 39.9727 32.4673 0 3.3791 0 49.5096 55.9963 0 115.5341 28.7949 115.5341 64.7882 71.0073 65.3755 71.0073 101.8097 115.5341 131.0449 115.5341 80.8017 54.9837 126.4907 0"/>
    <path class="cls-9" d="M292.537,58.0001c-7.293-4.9619-16.7031-6.4141-28.4663-6.4141-11.8804,0-21.4087,1.4521-28.584,6.4141-8.2344,5.5664-11.1748,14.8848-11.1748,25.8975s2.9404,20.21,11.1748,25.7764c7.1753,4.9619,16.7036,6.4141,28.584,6.4141,11.6455,0,21.1733-1.3311,28.4663-6.4141,8.1162-5.5664,11.0576-14.8848,11.0576-25.8975,0-10.8916-2.8232-20.21-11.0576-25.7764ZM264.0707,103.2599c-15.8799,0-22.7026-5.9297-22.7026-19.8467s6.9404-18.999,22.7026-18.999,22.4673,6.0508,22.4673,19.9678-6.8223,18.8779-22.4673,18.8779Z"/>
    <path class="cls-9" d="M386.5243,57.8791c-5.6465-5.2041-13.0576-6.293-20.3506-6.293-9.6455,0-21.291,2.7832-31.7598,5.5664l-.5879-3.8721h-13.5273v61.1133h16.585v-45.0186c7.7637-1.9355,16.9395-3.8721,24.2324-3.8721,9.8809,0,15.4092,3.9932,15.4092,15.127v33.7637h16.4688v-37.3945c0-8.7129-1.7646-14.7637-6.4697-19.1201Z"/>
    <path class="cls-9" d="M483.8016,77.2414c-6.1172-1.0889-11.1748-1.8154-15.292-2.9043-3.0586-.9678-4.4697-2.1777-4.4697-5.083,0-2.2988.8232-4.1143,4.1172-4.9609,3.0576-.6055,7.293-.6055,10.8213-.6055,7.4111,0,15.8809.4844,22.9385,1.3311v-12.2227c-7.7637-.7266-15.1748-1.21-22.4678-1.21-6.1162,0-14.7031.3633-20.3496,3.0254-7.0576,3.3887-9.5283,9.1973-9.5283,16.0947,0,11.4971,6.2344,15.8535,21.4092,18.5166,6.1162,1.0889,11.4102,1.8145,15.5264,3.0254,3.1768.9678,4.5879,2.2988,4.5879,5.3242,0,2.541-.8232,4.4775-4.3525,5.3252-3.1758.7256-8.2334.8467-13.4092.8467-6.9404,0-16.4688-.6045-23.5264-1.4521v12.707c8.3516.6045,16.9385,1.0889,24.9375,1.0889,6.7051,0,15.4092-.3633,21.291-3.1465,7.293-3.3887,9.8809-9.3184,9.8809-16.8213,0-11.9805-6.5869-16.3369-22.1143-18.8789Z"/>
  </g>
  <path class="cls-8" d="M416.6043,58.08v54.9021c0,1.7153,1.3341,3.1059,2.9795,3.1059h10.6269c1.6454,0,2.9795-1.3907,2.9795-3.1059v-54.9014c0-1.7153-1.3341-3.1059-2.9795-3.1059h-10.6269c-1.6454-.0007-2.9795,1.39-2.9795,3.1053ZM428.6434,84.8072v24.7851c0,.5629-.4371,1.0186-.9771,1.0186s-.9771-.4556-.9771-1.0186v-24.7851c0-.5622.4371-1.0186.9771-1.0186s.9771.4556.9771,1.0186ZM423.1065,84.8072v24.7851c0,.5629-.4371,1.0186-.9771,1.0186s-.9771-.4556-.9771-1.0186v-24.7851c0-.5622.4371-1.0186.9771-1.0186s.9771.4556.9771,1.0186ZM428.5262,65.2528c0,2.0887-1.6246,3.7823-3.6283,3.7823s-3.6283-1.6935-3.6283-3.7823,1.6246-3.7823,3.6283-3.7823,3.6283,1.6929,3.6283,3.7823Z"/>
  <g>
    <ellipse class="cls-14" cx="424.9009" cy="65.2527" rx="3.0168" ry="3.0944" transform="translate(-.7286 4.935) rotate(-.6649)"/>
    <path class="cls-13" d="M422.9992,64.5651c-.1706-.061-.2624-.2528-.1795-.4165.2023-.3994.5115-.7353.8949-.9667.4777-.2884,1.04-.396,1.5881-.3042.5481.0918,1.047.3774,1.4091.8065.3621.4291.5643.9744.5711,1.54.0068.5656-.1823,1.1156-.5341,1.5532-.3517.4377-.8437.7351-1.3894.84-.5458.1049-1.1105.0107-1.5949-.2661-.3888-.2222-.706-.5505-.9178-.945-.0868-.1616.0004-.3556.1695-.4207.1691-.0651.3556.0241.4506.1808.1514.2497.3634.4579.6178.6033.3502.2001.7584.2682,1.153.1924.3945-.0759.7501-.2909,1.0044-.6072.2543-.3164.391-.7139.3861-1.1228-.0049-.4089-.151-.8031-.4128-1.1133-.2618-.3102-.6224-.5166-1.0187-.583-.3962-.0664-.8027.0114-1.1481.2199-.2508.1514-.4578.3647-.6032.6179-.0913.1589-.2756.2526-.4462.1915Z"/>
    <path class="cls-13" d="M422.5571,65.2799c.0022.1899.1551.342.3415.3399l2.0253-.0235c.1864-.0022.3358-.1578.3336-.3477s-.1551-.342-.3415-.3399l-2.0253.0235c-.1864.0022-.3358.1578-.3336.3477Z"/>
    <path class="cls-12" d="M424.8761,61.4707c2.0507-.0238,3.7328,1.6501,3.757,3.7387s-1.6185,3.8011-3.6692,3.8249-3.7328-1.6501-3.757-3.7387,1.6185-3.8011,3.6692-3.8249ZM424.9559,68.3443c1.6766-.0195,3.0197-1.4195,2.9998-3.1271s-1.395-3.0761-3.0716-3.0566-3.0196,1.4195-2.9998,3.1271,1.395,3.076,3.0716,3.0566Z"/>
    <ellipse class="cls-14" cx="427.9347" cy="65.2064" rx=".0173" ry=".0082" transform="translate(-.7279 4.9707) rotate(-.6649)"/>
  </g>
  <path class="cls-11" d="M211.1847,84.031v-.014l-.024-.742v-.016l-.028-.735-.001-.017-.032-.728-.001-.019-.038-.72-.001-.021-.043-.713-.001-.022-.049-.705-.002-.024-.055-.697-.003-.026-.061-.688-.003-.028-.069-.681-.0031-.03-.076-.672-.004-.032-.084-.663-.004-.034-.092-.655-.005-.036-.1-.646-.007-.038-.108-.637-.008-.04-.118-.628-.008-.043-.127-.619-.01-.044-.136-.61-.011-.046-.147-.601-.012-.048-.158-.594-.002-.006-.012-.044-.002-.006-.166-.576-.002-.006-.014-.046-.001-.006-.1769-.567-.002-.006-.016-.048-.002-.006-.188-.558-.002-.006-.017-.049-.002-.007-.199-.548-.003-.006-.019-.051-.002-.006-.211-.539-.003-.006-.021-.052-.003-.007-.222-.529-.003-.007-.023-.053-.003-.006-.235-.52-.004-.007-.025-.054-.003-.007-.248-.511-.003-.007-.027-.054-.004-.007-.2599-.502-.004-.007-.03-.055-.004-.007-.274-.493-.004-.007-.031-.056-.005-.007-.287-.484-.004-.007-.035-.056-.004-.007-.302-.476-.004-.007-.037-.055-.004-.007-.317-.468-.005-.007-.038-.055-.005-.007-.332-.46-.005-.007-.041-.054-.005-.007-.348-.452-.005-.006-.0421-.054-.006-.007-.364-.444-.006-.007-.044-.052-.006-.006-.381-.437-.006-.007-.045-.051-.006-.006-.399-.43-.006-.006-.047-.05-.006-.006-.418-.422-.006-.006-.048-.048-.007-.006-.436-.415-.006-.006-.05-.046-.006-.006-.456-.408-.007-.006-.05-.044-.007-.005-.476-.402-.006-.005-.052-.042-.006-.005-.498-.395-.006-.005-.052-.04-.006-.005-.515-.384-.008-.005-.059-.043-.007-.005-.396-.276-.005-.003-.042-.0291-.006-.003-.413-.275-.006-.003-.041-.027-.006-.003-.42-.266-.005-.003-.042-.026-.005-.003-.428-.256-.005-.003-.041-.025-.005-.0031-.434-.248-.0049-.003-.041-.022-.005-.0031-.44-.24-.005-.003-.041-.021-.005-.003-.444-.23-.045-.023-.458-.225-.044-.021-.464-.218-.043-.02-.47-.209-.0421-.019-.475-.201-.042-.018-.481-.193-.04-.016-.486-.186-.04-.015-.491-.178-.039-.014-.495-.171-.038-.013-.5-.163-.037-.012-.504-.156-.036-.011-.509-.149-.035-.01-.512-.142-.035-.009-.515-.135-.034-.009-.519-.128-.032-.0081-.522-.121-.032-.007-.525-.116-.0309-.006-.528-.1089-.029-.006-.531-.102-.029-.006-.532-.096-.028-.005-.534-.091-.028-.004-.535-.085-.027-.004-.537-.079-.026-.004-.538-.0731-.025-.004-.54-.068-.024-.003-.54-.063-.023-.002-.541-.058-.022-.003-.541-.053-.022-.002-.541-.048-.021-.002-.54-.043-.021-.002-.54-.039-.019-.002-.54-.035-.018-.001-.539-.031-.018-.001-.537-.027-.018-.001-.535-.023h-.017l-.534-.02h-.016l-.532-.017h-.016l-.53-.013h-.014l-.528-.01h-.014l-.525-.007h-.013l-.522-.004h-.013l-.519-.001h-.012l-.575.001h-.013l-.574.005h-.014l-.573.007-.014.001-.572.01-.015.001-.57.014h-.016l-.569.018h-.016l-.567.022-.018.001-.565.025-.018.001-.563.029-.019.001-.561.034-.02.001-.559.038-.021.001-.556.042-.022.002-.554.047-.023.002-.551.052-.024.002-.549.057-.024.002-.546.062-.025.003-.544.067-.026.003-.541.072-.026.004-.538.078-.028.004-.534.083-.029.005-.531.089-.03.005-.528.095-.03.006-.525.101-.031.006-.521.107-.032.007-.517.113-.033.008-.514.12-.034.008-.51.127-.034.008-.506.134-.036.009-.502.14-.036.011-.498.147-.037.011-.494.1541-.037.012-.49.162-.039.013-.485.169-.039.013-.481.177-.04.015-.4771.184-.04.016-.472.191-.041.017-.468.2-.041.018-.463.208-.042.019-.459.2159-.042.02-.454.224-.043.022-.449.232-.043.023-.444.241-.043.024-.442.252-.005.002-.038.023-.005.003-.43.256-.005.003-.039.023-.004.003-.425.265-.005.003-.039.025-.005.003-.42.274-.0049.004-.038.025-.005.004-.416.283-.005.004-.038.026-.005.004-.404.288-.006.005-.048.035-.006.0049-.448.338-.006.005-.047.037-.006.004-.436.348-.006.0049-.046.038-.006.005-.423.357-.006.005-.045.039-.005.005-.412.367-.006.005-.043.039-.006.005-.4.377-.006.005-.041.04-.006.005-.389.3849-.005.006-.04.04-.005.006-.379.394-.005.005-.038.041-.0049.006-.367.402-.005.006-.037.041-.0049.006-.3571.411-.004.005-.036.043-.004.005-.346.4189-.004.006-.034.042-.005.006-.335.427-.004.006-.033.0421-.004.006-.324.435-.004.006-.031.042-.004.006-.315.443-.003.006-.03.042-.004.006-.304.451-.0031.005-.028.043-.004.005-.294.458-.003.006-.027.042-.003.006-.2841.465-.003.005-.025.043-.004.005-.273.472-.003.006-.024.042-.003.005-.264.479-.003.005-.023.042-.002.005-.255.486-.002.005-.021.041-.003.006-.244.491-.003.005-.02.041-.002.005-.235.498-.002.005-.019.041-.002.005-.225.501-.019.045-.218.514-.019.045-.208.518-.017.045-.199.523-.016.044-.189.528-.015.043-.18.532-.014.043-.17.536-.013.042-.161.54-.012.041-.153.544-.011.04-.143.547-.01.04-.134.549-.009.04-.125.551-.009.039-.116.554-.0081.038-.108.556-.007.038-.099.557-.006.038-.091.558-.006.037-.082.559-.005.036-.074.56-.004.036-.066.56-.003.036-.058.56-.0031.035-.05.56-.003.0341-.041.559-.002.035-.034.558-.002.034-.026.557-.001.033-.019.5551-.001.034-.011.553v.033l-.004.553v.029l.003.622v.025l.01.62v.026l.016.615.001.026.022.611.001.028.029.605.001.029.036.601.002.0291.0421.5959.002.03.049.592.003.031.056.586.003.032.063.5811.003.032.07.576.004.034.077.57.005.034.085.566.005.035.091.56.007.035.098.555.007.036.106.549.0081.037.114.543.008.038.121.537.01.039.129.5309.01.04.136.525.011.041.145.519.012.041.152.513.013.042.16.507.014.043.168.5.0161.0439.176.494.016.044.185.487.017.045.193.481.018.046.201.475.02.045.21.471.0031.005.019.041.002.005.215.457.003.005.02.041.002.005.224.451.003.005.021.041.003.006.232.443.003.005.022.042.003.005.241.437.003.006.024.041.003.006.249.43.003.005.025.042.004.006.258.423.003.006.026.041.004.006.267.417.003.005.028.042.003.005.276.4109.004.005.029.041.003.006.286.4041.003.0049.03.041.004.005.295.398.004.005.031.041.004.005.304.391.004.005.032.041.004.005.314.384.004.005.033.04.004.005.324.378.004.005.035.039.004.005.333.371.005.005.035.039.005.005.343.365.005.004.0359.038.005.005.354.358.004.005.038.037.005.005.364.352.004.004.039.0359.0049.005.374.345.005.005.039.035.005.004.379.333.006.005.052.0439.007.006.3571.295.0049.004.039.032.006.004.37.291.005.004.04.031.005.004.376.282.005.004.04.03.005.0031.381.2729.005.004.041.028.0049.004.386.263.005.004.041.027.006.004.391.254.005.004.041.026.005.003.397.246.005.0031.041.025.005.003.402.237.005.003.042.024.005.003.407.229.005.002.041.023.005.003.413.22.005.003.041.021.005.003.418.212.005.003.041.02.005.002.421.204.045.021.434.199.045.02.44.191.044.019.4449.183.043.018.451.175.042.017.456.168.0421.015.462.1609.041.014.466.154.041.013.472.147.039.012.478.14.038.011.483.133.037.01.488.126.037.009.493.12.036.008.498.114.034.007.504.107.033.007.509.101.032.006.513.095.032.005.518.089.031.005.5229.083.029.004.528.077.028.004.533.072.027.003.537.066.026.004.542.06.025.003.546.056.025.002.55.051.023.002.555.045.022.002.559.041.022.002.562.036.021.001.567.032.019.001.571.027.019.001.574.024h.018l.578.02h.018l.581.016h.017l.585.012h.016l.589.008h.014l.592.005h.014l.594.002h.016l.726-.003h.018l.727-.007.018-.001.729-.012.016-.001.731-.017.017-.001.44-.0132-1.0673-12.7977-.2558-.006h-.009l-.011-.001h-.01l-.937-.038h-.01l-.012-.001h-.01l-.905-.053h-.01l-.0129-.001-.01-.001-.875-.067-.011-.001-.013-.001-.011-.001-.844-.081-.012-.001-.014-.001-.011-.002-.814-.0941-.012-.002-.014-.002-.012-.001-.784-.1089-.012-.002-.016-.002-.012-.002-.754-.122-.014-.002-.016-.003-.013-.002-.725-.135-.013-.002-.017-.004-.014-.0031-.696-.147-.014-.003-.018-.004-.014-.004-.668-.159-.015-.004-.018-.005-.015-.004-.639-.172-.016-.004-.019-.005-.016-.005-.611-.183-.017-.005-.019-.007-.017-.0049-.584-.195-.017-.006-.02-.007-.017-.006-.558-.206-.017-.006-.021-.008-.018-.007-.5309-.217-.018-.007-.022-.009-.018-.008-.506-.2271-.018-.008-.022-.011-.018-.008-.481-.237-.019-.009-.023-.012-.018-.01-.457-.246-.019-.01-.023-.013-.019-.011-.433-.255-.019-.012-.0229-.014-.019-.012-.4109-.264-.019-.013-.023-.016-.019-.013-.388-.273-.019-.014-.024-.017-.018-.014-.368-.282-.019-.015-.022-.018-.019-.015-.347-.291-.018-.016-.023-.019-.018-.017-.327-.299-.018-.017-.022-.021-.0179-.017-.309-.308-.017-.018-.021-.022-.017-.018-.291-.317-.017-.019-.02-.022-.016-.019-.274-.327-.016-.019-.019-.023-.015-.02-.258-.3361-.015-.02-.017-.024-.015-.02-.242-.346-.014-.02-.016-.024-.013-.021-.228-.356-.012-.02-.015-.025-.012-.02-.213-.367-.012-.02-.013-.025-.011-.021-.199-.377-.01-.021-.013-.024-.01-.021-.185-.388-.009-.02-.011-.025-.009-.02-.171-.4-.009-.02-.009-.024-.008-.02-.159-.411-.007-.02-.008-.0229-.007-.019-.146-.424-.006-.019-.007-.023-.006-.018-.133-.436-.005-.018-.007-.022-.005-.018-.12-.447-.004-.018-.006-.021-.004-.017-.108-.46-.003-.016-.005-.021-.003-.017-.096-.471-.003-.016-.004-.019-.003-.016-.083-.483-.003-.016-.003-.018-.002-.015-.071-.495-.002-.015-.003-.017-.002-.015-.06-.506-.001-.014-.002-.016-.001-.014-.043-.457-.004-.143.014-.144.032-.14.05-.135.067-.127.083-.118.097-.107.1089-.093.121-.078.13-.062.136-.046.142-.027.1429-.009h52.0331c1.722-.0507,3.1035-1.4598,3.1818-3.2265l.0031.1165h0s-.02-.7501-.02-.7501ZM194.7608,75.934l-.031.142-.049.136-.066.13-.082.119-.097.108-.111.095-.121.08-.131.063-.137.046-.143.028-.145.01h-37.493l-.15-.01-.147-.03-.142-.05-.1349-.068-.124-.085-.111-.101-.097-.1151-.081-.127-.063-.136-.044-.144-.025-.148-.005-.151.015-.149.062-.362.002-.013.003-.017.003-.013.097-.5.003-.014.004-.017.003-.014.108-.486.003-.014.004-.018.004-.015.118-.473.004-.015.005-.019.004-.015.129-.46.004-.015.006-.02.005-.015.139-.447.005-.017.007-.019.005-.017.15-.433.006-.017.007-.021.007-.0161.16-.421.007-.017.008-.021.007-.018.171-.408.008-.017.009-.022.008-.017.182-.396.009-.017.01-.022.009-.018.193-.383.009-.018.012-.022.009-.018.204-.371.01-.018.013-.0229.011-.018.215-.359.011-.018.014-.022.012-.018.226-.348.012-.018.015-.022.013-.018.238-.336.013-.018.016-.022.014-.018.25-.325.014-.0179.017-.021.014-.017.263-.315.015-.017.018-.0211.015-.017.276-.305.015-.016.019-.02.016-.017.289-.2939.017-.0161.019-.02.017-.015.303-.285.017-.015.02-.019.017-.015.3181-.275.017-.014.021-.018.017-.014.333-.266.017-.013.022-.017.017-.013.349-.256.017-.013.022-.016.018-.012.365-.247.017-.012.022-.014.018-.012.382-.238.017-.01.022-.014.018-.01.399-.229.018-.01.022-.012.018-.009.416-.219.018-.01.021-.01.018-.009.435-.21.017-.008.022-.01.017-.008.454-.2.017-.007.021-.009.017-.007.473-.19.017-.007.02-.008.017-.006.493-.1801.0161-.006.02-.007.016-.005.513-.17.0161-.005.019-.006.016-.005.533-.16.015-.004.019-.006.015-.004.554-.149.015-.004.018-.004.015-.004.575-.138.014-.003.017-.004.015-.003.596-.127.014-.003.016-.003.014-.0031.618-.115.013-.003.016-.003.013-.002.64-.104.012-.002.016-.002.012-.002.662-.092.012-.002.015-.002.012-.001.683-.081.012-.001.014-.002.011-.001.707-.069.0099-.001.014-.001.011-.001.729-.056.01-.001.013-.001h.01l.752-.044.01-.001.012-.001h.01l.774-.032h.021l.01-.001.797-.019h.03l.821-.007h.026l.824.006h.026l.802.017.008.001h.019l.78.028.009.001h.011l.009.001.757.039.0099.001.011.001h.01l.735.051.01.001.012.001.01.001.714.062.01.001.013.001.01.001.692.073.011.001.013.002.011.001.67.085.012.001.014.002.011.002.6479.095.013.002.014.002.013.002.626.107.013.002.015.003.013.002.605.117.013.003.017.003.013.003.584.128.014.003.017.004.014.004.562.138.015.004.018.004.014.004.541.149.016.005.018.005.016.005.52.159.016.005.019.006.016.005.499.17.017.005.02.008.017.006.479.179.017.006.021.009.017.006.459.189.017.008.022.009.017.008.439.199.018.008.022.011.019.008.419.208.018.01.0229.012.018.009.401.218.019.01.0229.013.018.011.382.227.019.012.023.014.019.012.364.236.019.012.0229.016.019.013.347.246.019.013.023.017.018.015.33.254.019.015.023.018.018.016.314.264.018.016.023.02.018.0161.298.274.018.017.021.021.018.017.283.284.017.018.021.022.017.018.269.294.016.019.02.023.016.019.255.305.016.019.019.024.015.019.241.317.015.02.018.024.014.02.229.329.013.02.017.025.013.02.216.341.012.021.016.025.012.02.203.354.012.021.013.025.012.02.191.368.01.02.013.025.01.021.179.381.009.02.011.025.009.02.168.396.008.02.01.024.008.02.155.411.007.019.009.024.007.02.143.426.007.019.007.023.006.019.132.441.005.018.006.0229.005.018.12.457.004.018.006.022.004.018.108.473.003.017.005.02.003.018.096.489.003.016.003.02.0031.0161.0829.506.0031.015.003.019.002.016.071.522.002.015.002.018.002.015.057.526.006.145-.012.145Z"/>
  <g>
    <polygon class="cls-10" points="209.155 122.4529 180.9781 124.8894 178.7977 98.861 206.9747 96.4245 209.155 122.4529"/>
    <g>
      <polygon class="cls-6" points="180.562 102.4379 181.3728 115.5204 175.6994 115.576 174.8934 103.6432 180.562 102.4379"/>
      <polygon class="cls-6" points="186.0438 101.9189 186.8717 114.9998 181.2286 115.5341 180.4177 102.4515 186.0438 101.9189"/>
      <polygon class="cls-2" points="177.5913 110.8468 177.8515 115.5549 177.2915 115.5604 177.0416 110.8785 177.5913 110.8468"/>
      <polygon class="cls-2" points="177.159 103.1614 177.4294 107.9938 176.8884 108.045 176.6181 103.2927 177.159 103.1614"/>
      <polygon class="cls-2" points="178.8945 110.847 179.1572 115.5225 178.6075 115.5542 178.3545 110.858 178.8945 110.847"/>
      <polygon class="cls-2" points="178.4709 102.8825 178.735 107.8702 178.1907 107.9217 177.9224 102.9991 178.4709 102.8825"/>
      <polygon class="cls-2" points="176.4074 110.8942 176.6515 115.5667 176.1175 115.5719 175.8576 110.9259 176.4074 110.8942"/>
      <polygon class="cls-2" points="175.9981 103.4083 176.2526 108.1052 175.7029 108.1369 175.4477 103.5376 175.9981 103.4083"/>
      <polygon class="cls-2" points="180.1133 110.8323 180.3761 115.5078 179.8264 115.5395 179.5733 110.8433 180.1133 110.8323"/>
      <polygon class="cls-2" points="179.582 102.6345 179.889 107.7609 179.3418 107.8127 179.0486 102.7596 179.582 102.6345"/>
    </g>
    <polygon class="cls-5" points="203.4482 101.1673 204.1429 112.9432 186.794 114.3906 186.0654 102.532 203.4482 101.1673"/>
    <polygon class="cls-3" points="207.0836 100.9733 207.7737 112.7052 204.1748 112.9318 203.4801 101.1559 207.0836 100.9733"/>
    <polyline class="cls-3" points="203.7088 103.3709 207.2535 103.162 207.2734 103.7292 203.7451 103.9897 203.7088 103.3709"/>
    <polygon class="cls-3" points="207.6676 109.6497 207.7004 110.2083 204.1044 110.4909 204.0759 109.8694 207.6676 109.6497"/>
    <polygon class="cls-3" points="207.4461 107.4722 207.4855 108.0375 203.8927 108.3052 203.8598 107.7469 207.4461 107.4722"/>
    <polygon class="cls-3" points="207.2838 105.3583 207.3124 105.9029 203.7421 106.2042 203.7124 105.5834 207.2838 105.3583"/>
    <g>
      <polygon class="cls-7" points="204.0657 111.8327 204.0657 111.8331 205.7955 111.7295 205.2953 102.006 203.5121 102.1196 204.0657 111.8327 204.0657 111.8327"/>
      <polygon class="cls-1" points="200.1426 104.8374 188.9817 105.7568 189.3083 110.8078 200.529 109.7757 200.7078 112.0604 204.0949 111.8172 203.5412 102.1042 203.5412 102.1036 199.9478 102.3484 200.1426 104.8374"/>
    </g>
    <polygon class="cls-4" points="207.0836 100.9733 207.1403 101.9368 203.5121 102.1196 203.4482 101.1673 207.0836 100.9733"/>
    <polygon class="cls-4" points="207.71 111.6226 207.7737 112.7052 204.1418 112.9235 204.0657 111.8327 207.71 111.6226"/>
  </g>
  <path class="cls-8" d="M424.8972,28.0147c-4.5801,0-8.293,3.7129-8.293,8.293s3.7129,8.293,8.293,8.293,8.293-3.7129,8.293-8.293-3.7129-8.293-8.293-8.293ZM422.266,38.854c-.2394.2684-.6284.2684-.8678,0l-1.8391-2.0611c-.2394-.2684-.2394-.7042,0-.9726l1.8391-2.0611c.2394-.2684.6284-.2684.8678,0h-.0019c.2394.2684.2394.7042,0,.9726l-1.4042,1.5759,1.4061,1.5737c.2394.2684.2394.7042,0,.9726ZM426.7123,31.6874l-2.4521,9.6185c-.0939.365-.4329.5775-.7586.4723-.3257-.1052-.5153-.4852-.4214-.8502l2.4521-9.6185c.0939-.365.4329-.5775.7586-.4724.3256.1052.5153.4852.4214.8502ZM430.2352,36.7951l-1.8391,2.0611c-.2394.2684-.6283.2684-.8678,0-.2394-.2684-.2394-.7042,0-.9726l1.4061-1.5759-1.4061-1.5759c-.2394-.2684-.2394-.7042,0-.9726v.0021c.2395-.2684.6284-.2684.8678,0l1.8391,2.0611c.2395.2684.2395.7042,0,.9726Z"/>
</svg>