<?xml version="1.0" encoding="UTF-8"?>
<svg id="Layer_1" data-name="Layer 1" xmlns="http://www.w3.org/2000/svg" viewBox="0 0 502.5368281553 131.0911539606">
  <defs>
    <style>
      .cls-1, .cls-2 {
        fill: #afb1b4;
      }

      .cls-3 {
        opacity: .25;
      }

      .cls-3, .cls-4 {
        stroke: #1d1e1c;
        stroke-miterlimit: 10;
        stroke-width: .5px;
      }

      .cls-3, .cls-4, .cls-5 {
        fill: #b2b1b2;
      }

      .cls-4 {
        opacity: .1;
      }

      .cls-6 {
        fill: #b0b1b4;
      }

      .cls-7 {
        fill: none;
      }

      .cls-5 {
        opacity: .4;
      }

      .cls-8 {
        fill: #d8ebe6;
      }

      .cls-9, .cls-10, .cls-11, .cls-2 {
        fill-rule: evenodd;
      }

      .cls-9, .cls-12 {
        fill: #a4a3a7;
      }

      .cls-10, .cls-13 {
        fill: #bec0c2;
      }

      .cls-11 {
        fill: #c0c0bf;
      }
    </style>
  </defs>
  <g>
    <path class="cls-2" d="M289.1579219053,58.000144636c-7.29296875-4.9619140625-16.703125-6.4140625-28.4663085938-6.4140625-11.8803710938,0-21.4086914063,1.4521484375-28.583984375,6.4140625-8.234375,5.56640625-11.1748046875,14.884765625-11.1748046875,25.8974609375s2.9404296875,20.2099609375,11.1748046875,25.7763671875c7.1752929688,4.9619140625,16.7036132812,6.4140625,28.583984375,6.4140625,11.6455078125,0,21.1733398438-1.3310546875,28.4663085938-6.4140625,8.1162109375-5.56640625,11.0576171875-14.884765625,11.0576171875-25.8974609375,0-10.8916015625-2.8232421875-20.2099609375-11.0576171875-25.7763671875ZM260.6916133115,103.259910261c-15.8798828125,0-22.7026367188-5.9296875-22.7026367188-19.8466796875s6.9404296875-18.9990234375,22.7026367188-18.9990234375c15.7626953125,0,22.4672851562,6.05078125,22.4672851562,19.9677734375s-6.822265625,18.8779296875-22.4672851562,18.8779296875Z"/>
    <path class="cls-10" d="M383.1452265928,57.879050886c-5.646484375-5.2041015625-13.0576171875-6.29296875-20.3505859375-6.29296875-9.6455078125,0-21.291015625,2.783203125-31.759765625,5.56640625l-.587890625-3.8720703125h-13.52734375v61.11328125h16.5849609375v-45.0185546875c7.763671875-1.935546875,16.939453125-3.8720703125,24.232421875-3.8720703125,9.880859375,0,15.4091796875,3.9931640625,15.4091796875,15.126953125v33.763671875h16.46875v-37.39453125c0-8.712890625-1.7646484375-14.763671875-6.4697265625-19.1201171875Z"/>
    <path class="cls-10" d="M480.4225703428,77.2413555735c-6.1171875-1.0888671875-11.1748046875-1.8154296875-15.2919921875-2.904296875-3.05859375-.9677734375-4.4697265625-2.177734375-4.4697265625-5.0830078125,0-2.298828125.8232421875-4.1142578125,4.1171875-4.9609375,3.0576171875-.60546875,7.29296875-.60546875,10.8212890625-.60546875,7.4111328125,0,15.880859375.484375,22.9384765625,1.3310546875v-12.22265625c-7.763671875-.7265625-15.1748046875-1.2099609375-22.4677734375-1.2099609375-6.1162109375,0-14.703125.36328125-20.349609375,3.025390625-7.0576171875,3.388671875-9.5283203125,9.197265625-9.5283203125,16.0947265625,0,11.4970703125,6.234375,15.853515625,21.4091796875,18.5166015625,6.1162109375,1.0888671875,11.41015625,1.814453125,15.5263671875,3.025390625,3.1767578125.9677734375,4.587890625,2.298828125,4.587890625,5.32421875,0,2.541015625-.8232421875,4.4775390625-4.3525390625,5.3251953125-3.17578125.7255859375-8.2333984375.8466796875-13.4091796875.8466796875-6.9404296875,0-16.46875-.6044921875-23.5263671875-1.4521484375v12.70703125c8.3515625.6044921875,16.9384765625,1.0888671875,24.9375,1.0888671875,6.705078125,0,15.4091796875-.36328125,21.291015625-3.146484375,7.29296875-3.388671875,9.880859375-9.318359375,9.880859375-16.8212890625,0-11.98046875-6.5869140625-16.3369140625-22.1142578125-18.87890625Z"/>
  </g>
  <path class="cls-6" d="M413.2252016042,58.0800162635l-.0000007304,54.9020725386c-.0000000228,1.7152651623,1.3340651827,3.1059474554,2.9794987716,3.1059474326l10.6269228181-.0000001474c1.6454332783-.0000000228,2.9794986762-1.3906823529,2.979498699-3.1059475152l.0000007304-54.9013886869c.0000000228-1.7152659718-1.334065338-3.1059458364-2.9794986163-3.1059458136l-10.6269228181.0000001474c-1.6454335889-.0006838289-2.9794988315,1.3899960727-2.9794988543,3.1052620445ZM425.2643580285,84.807190917l-.0000003298,24.7851083796c-.0000000075.5629278512-.4370884373,1.0185661039-.9770985199,1.0185661113s-.9770985003-.455638233-.9770984928-1.0185660842l.0000003298-24.7851083796c.0000000075-.562247885.4370884373-1.0185661039.9770985199-1.0185661113s.9770985003.4556395282.9770984928,1.0185660842ZM419.7274658714,84.8071909938l-.0000003298,24.7851083796c-.0000000075.5629278512-.4370890585,1.0185661039-.9770985199,1.0185661113s-.9770985003-.455638233-.9770984928-1.0185660842l.0000003298-24.7851083796c.0000000075-.562247885.4370890585-1.0185661039.9770985199-1.0185661113s.9770985003.4556395282.9770984928,1.0185660842ZM425.1471062691,65.2527609626c-.0000000278,2.0887370992-1.6245888289,3.7822752584-3.628292305,3.7822752862s-3.6282922322-1.6935380863-3.6282922044-3.7822751856,1.6245888289-3.7822752584,3.628292305-3.7822752862,3.6282922322,1.6928542346,3.6282922044,3.7822751856Z"/>
  <g>
    <ellipse class="cls-8" cx="421.5218110552" cy="65.252726083" rx="3.01681079" ry="3.0943805665" transform="translate(-.728816229 4.8957611608) rotate(-.6648790397)"/>
    <path class="cls-12" d="M419.620097981,64.5651051157c-.170617163-.0610462818-.2623551051-.2528431331-.1794893723-.4165114246.2022709242-.399417506.5115328123-.7352969255.8948959795-.9666827042.4777402656-.2883557719,1.0400166278-.3960405349,1.5881000271-.3041997476.5481168713.091839743,1.0470316049.3773881928,1.4091278827.8064964243.362129765.4291084987.5643009383.9743667421.5710686453,1.5400137191.0067677032.5656466491-.1823217124,1.1155901481-.5340886526,1.5532384347-.3517327768.4376513332-.8436789796.7350533778-1.3894108463.8400013452-.5457653863.1049449134-1.1104526144.0107286044-1.5949485964-.2661120214-.3887853179-.2221527047-.7059892479-.550510339-.9177510929-.94499879-.0867557196-.1616137501.000373678-.3555553991.1694791955-.4206786217.1691054376-.0651301079.3555898679.024126457.4506475238.1808267917.1514496459.2496637802.363443491.4579139791.617825922.6032679676.3502354585.200129942.758444871.2682422231,1.1529981862.1923741087.3945195518-.0758644434.7501194801-.2908601944,1.004409738-.607238499.2542902217-.3163814194.3909967343-.7139309452.3860822371-1.1228409193-.0048810214-.4089106905-.151046641-.8030807935-.4128111651-1.1132839991-.2617648422-.310202874-.6224243922-.5166214134-1.0186627232-.5830259808-.3962383386-.0664052232-.8026860772.0114474241-1.1480513466.2199051387-.2508367023.1514171013-.4577902516.3646637236-.6032273883.6179072909-.0912833698.1589177717-.275580132.2526222361-.4461941534.1915414868Z"/>
    <path class="cls-12" d="M419.1780120703,65.2799283881c.0022037283.1898791816.1551211602.3420428679.3415471643.3398792064l2.0253424486-.0235061389c.1864329254-.0021637419.3357707135-.1578354044.3335669852-.347714586s-.1551142389-.3420429483-.3415471643-.3398792064l-2.0253424485.0235061389c-.1864260041.0021636615-.3357707135.1578354044-.3335669852.347714586Z"/>
    <path class="cls-9" d="M421.4970206089,61.470738701c2.0506929663-.0238003572,3.7327786144,1.6500707652,3.757018807,3.7386712705.0242403125,2.0886108333-1.6185438713,3.8010600892-3.6692368376,3.8248604464-2.0507031068.0238004749-3.7327784946-1.6500604372-3.757018807-3.7386712705-.0242401926-2.0886005053,1.6185337309-3.8010599715,3.6692368376-3.8248604464ZM421.576795147,68.3443285005c1.6765787117-.0194583845,3.0196527708-1.4194894556,2.9998348333-3.1270565103-.0198179794-1.7075706613-1.3950233492-3.0760601662-3.071602061-3.0566017818-1.6765751706.0194583434-3.0196424709,1.4194961403-2.9998244915,3.1270668015.0198179375,1.7075670547,1.3950165486,3.0760498339,3.0715917192,3.0565914905Z"/>
    <ellipse class="cls-8" cx="424.5556036501" cy="65.2064470918" rx=".0173145779" ry=".00823026" transform="translate(-.7281457437 4.9314619437) rotate(-.6649463427)"/>
  </g>
  <path class="cls-11" d="M207.8056791586,84.031028425v-.0139770508l-.0239868164-.7420043945v-.0159912109l-.0280151367-.7349853516-.0009765625-.0170288086-.0319824219-.7279663086-.0010375977-.0190429688-.0379638672-.7199707031-.0010375977-.0209960938-.04296875-.7130126953-.0009765625-.0219726562-.0490112305-.7050170898-.0020141602-.0239868164-.0549926758-.6970214844-.0029907227-.0260009766-.0610351562-.6879882812-.0029907227-.0280151367-.0689697266-.6809692383-.0030517578-.0300292969-.0759887695-.6719970703-.0039672852-.0319824219-.0840454102-.6630249023-.0039672852-.033996582-.0919799805-.6549682617-.0050048828-.0360107422-.1000366211-.6459960938-.0069580078-.0380249023-.1080322266-.6369628906-.0079956055-.0400390625-.117980957-.6279907227-.0079956055-.0430297852-.1270141602-.6189575195-.0100097656-.0440063477-.1359863281-.6099853516-.0109863281-.0460205078-.1470336914-.6010131836-.0119628906-.0479736328-.1580200195-.5939941406-.0020141602-.0060424805-.0119628906-.0440063477-.0020141602-.0059814453-.166015625-.5759887695-.0020141602-.0059814453-.0139770508-.0460205078-.0010375977-.0059814453-.176940918-.5670166016-.0020141602-.0059814453-.0159912109-.048034668-.0020141602-.0059814453-.1879882812-.5579833984-.0020141602-.0060424805-.0170288086-.0489501953-.001953125-.007019043-.1990356445-.548034668-.0029907227-.0059814453-.0189819336-.0509643555-.0020141602-.0060424805-.2109985352-.5390014648-.0029907227-.0059814453-.0209960938-.0520019531-.0029907227-.007019043-.2220458984-.5289916992-.0029907227-.007019043-.0230102539-.0529785156-.0029907227-.0059814453-.2349853516-.5200195312-.0040283203-.007019043-.0249633789-.0539550781-.0029907227-.007019043-.248046875-.5109863281-.0029907227-.007019043-.0269775391-.0540161133-.0040283203-.0069580078-.2599487305-.5020141602-.0040283203-.007019043-.0300292969-.0549926758-.0039672852-.007019043-.2739868164-.492980957-.0040283203-.007019043-.0310058594-.0559692383-.0050048828-.007019043-.2869873047-.4840087891-.0039672852-.0069580078-.0350341797-.0560302734-.0039672852-.0069580078-.3020019531-.4760131836-.0040283203-.007019043-.0369873047-.0549926758-.0040283203-.007019043-.3169555664-.467956543-.0050048828-.007019043-.0380249023-.0549926758-.0050048828-.007019043-.3319702148-.4600219727-.0050048828-.0069580078-.041015625-.0540161133-.0050048828-.007019043-.3479614258-.451965332-.0050048828-.0060424805-.0420532227-.0539550781-.0059814453-.007019043-.3640136719-.4440307617-.0059814453-.0069580078-.0440063477-.0520019531-.0059814453-.0059814453-.3809814453-.4370117188-.0060424805-.007019043-.0449829102-.0510253906-.0059814453-.0059814453-.3990478516-.4299926758-.0059814453-.0059814453-.0469970703-.049987793-.0059814453-.0060424805-.4180297852-.4219970703-.0059814453-.0059814453-.0479736328-.048034668-.007019043-.0059814453-.4360351562-.4149780273-.0059814453-.0060424805-.049987793-.0459594727-.0059814453-.0059814453-.4559936523-.4080200195-.007019043-.0059814453-.049987793-.0440063477-.007019043-.0050048828-.4760131836-.4020385742-.0059814453-.0050048828-.0520019531-.0419921875-.0059814453-.0050048828-.498046875-.3949584961-.0059814453-.0050048828-.0520019531-.0400390625-.0059814453-.0050048828-.5150146484-.383972168-.0079956055-.0050048828-.0590209961-.04296875-.0069580078-.0050048828-.3959960938-.2760009766-.0050048828-.0029907227-.0419921875-.0290527344-.0060424805-.0029907227-.4129638672-.2749633789-.0060424805-.0029907227-.0409545898-.0270385742-.0060424805-.0029907227-.4199829102-.2659912109-.0050048828-.0029907227-.0419921875-.0260009766-.0050048828-.0029907227-.4279785156-.2560424805-.0050048828-.0029907227-.041015625-.0249633789-.0050048828-.0030517578-.4340209961-.2479858398-.0049438477-.0029907227-.041015625-.0219726562-.0050048828-.0030517578-.4400024414-.2399902344-.0050048828-.0029907227-.041015625-.0209960938-.0050048828-.0029907227-.4439697266-.2299804688-.0449829102-.0230102539-.4580078125-.2250366211-.0440063477-.0209960938-.4639892578-.217956543-.0430297852-.0200195312-.4699707031-.208984375-.0420532227-.0190429688-.4749755859-.2009887695-.0419921875-.0180053711-.4810180664-.1929931641-.0399780273-.0159912109-.4860229492-.1859741211-.0399780273-.0150146484-.491027832-.1780395508-.0390014648-.0139770508-.4949951172-.1710205078-.0379638672-.0130004883-.5-.1629638672-.0369873047-.0120239258-.5040283203-.1560058594-.0360107422-.0109863281-.508972168-.1489868164-.0350341797-.0100097656-.5119628906-.1420288086-.0350341797-.008972168-.5150146484-.1350097656-.033996582-.008972168-.5189819336-.1279907227-.0319824219-.0080566406-.5220336914-.1209716797-.0319824219-.007019043-.5250244141-.1159667969-.0309448242-.0060424805-.5280151367-.1089477539-.0289916992-.0060424805-.5310058594-.1019897461-.0289916992-.0059814453-.532043457-.0960083008-.0279541016-.0050048828-.533996582-.091003418-.0280151367-.0039672852-.5350341797-.0850219727-.0269775391-.0040283203-.5369873047-.0789794922-.0260009766-.0039672852-.5380249023-.073059082-.0249633789-.0039672852-.5400390625-.0679931641-.0239868164-.0029907227-.5399780273-.0629882812-.0230102539-.0020141602-.541015625-.0580444336-.0219726562-.0029907227-.541015625-.0529785156-.0220336914-.0020141602-.5409545898-.0479736328-.0209960938-.0020141602-.5400390625-.0430297852-.0209960938-.001953125-.5399780273-.0390014648-.0189819336-.0020141602-.5400390625-.0349731445-.0180053711-.0010375977-.5390014648-.0310058594-.0180053711-.0009765625-.5369873047-.0270385742-.0180053711-.0009765625-.5349731445-.0230102539h-.0170288086l-.533996582-.0199584961h-.0159912109l-.5319824219-.0170288086h-.0159912109l-.5300292969-.0130004883h-.0139770508l-.5280151367-.0100097656h-.0139770508l-.5250244141-.0069580078h-.0130004883l-.5219726562-.0040283203h-.0130004883l-.5190429688-.0009765625h-.0119628906l-.575012207.0009765625h-.0130004883l-.5739746094.0050048828h-.0140380859l-.5729980469.007019043-.0139770508.0009765625-.5720214844.0100097656-.0150146484.0009765625-.5700073242.0140380859h-.0159912109l-.5689697266.0180053711h-.0159912109l-.5670166016.0219726562-.0180053711.0009765625-.5650024414.0250244141-.0180053711.0009765625-.5629882812.0289916992-.0189819336.0010375977-.5610351562.033996582-.0199584961.0009765625-.5590209961.0380249023-.0209960938.0009765625-.5560302734.0419921875-.0219726562.0020141602-.5540161133.0469970703-.0230102539.0020141602-.5509643555.0520019531-.0239868164.0020141602-.5490112305.0570068359-.0240478516.001953125-.5459594727.0620117188-.0250244141.0029907227-.5440063477.0670166016-.0260009766.0029907227-.5409545898.0720214844-.0260009766.0039672852-.5380249023.0780029297-.0280151367.0040283203-.533996582.0830078125-.0289916992.0050048828-.5310058594.0889892578-.0299682617.0050048828-.5280151367.0949707031-.0300292969.0060424805-.5249633789.1009521484-.0310058594.0060424805-.5209960938.1069946289-.0319824219.0069580078-.5170288086.1130371094-.0330200195.0079956055-.5139770508.1199951172-.033996582.0079956055-.5100097656.1270141602-.033996582.0079956055-.5059814453.133972168-.0360107422.0090332031-.5020141602.1400146484-.0360107422.0109863281-.4979858398.1469726562-.0369873047.0109863281-.4940185547.1540527344-.0369873047.0119628906-.4899902344.1619873047-.0390014648.0130004883-.4849853516.1690063477-.0390014648.0130004883-.4810180664.1770019531-.0399780273.0150146484-.4770507812.1840209961-.0399780273.0159912109-.4719848633.1909790039-.041015625.0170288086-.4680175781.1999511719-.0409545898.0180053711-.4630126953.2080078125-.0419921875.0190429688-.4590454102.2159423828-.0419921875.0200195312-.4539794922.2239990234-.0430297852.0220336914-.4489746094.2319946289-.0430297852.0230102539-.4439697266.2409667969-.0430297852.0239868164-.4419555664.2520141602-.0050048828.0020141602-.0380249023.0230102539-.0050048828.0029907227-.4299926758.2559814453-.0050048828.0029907227-.0390014648.0230102539-.0039672852.0029907227-.424987793.2650146484-.0050048828.0029907227-.0390014648.0250244141-.0050048828.0029907227-.4200439453.2739868164-.0049438477.0040283203-.0380249023.0249633789-.0050048828.0040283203-.416015625.2830200195-.0050048828.0039672852-.0379638672.0260009766-.0050048828.0040283203-.4039916992.2879638672-.0060424805.0050048828-.0479736328.0350341797-.0059814453.0049438477-.4479980469.3380126953-.0060424805.0050048828-.0469970703.0369873047-.0059814453.0040283203-.4359741211.3480224609-.0060424805.0049438477-.0459594727.0380249023-.0060424805.0050048828-.4229736328.3569946289-.0059814453.0050048828-.0450439453.0390014648-.0050048828.0050048828-.4119873047.3670043945-.0059814453.0050048828-.0430297852.0390014648-.0059814453.0050048828-.4000244141.376953125-.0059814453.0050048828-.041015625.0400390625-.0059814453.0050048828-.3889770508.3849487305-.0050048828.0060424805-.0400390625.0399780273-.0050048828.0059814453-.3789672852.3940429688-.0050048828.0050048828-.0380249023.0409545898-.0049438477.0060424805-.3670043945.4019775391-.0050048828.0059814453-.0370483398.041015625-.0049438477.0059814453-.3570556641.4110107422-.0039672852.0050048828-.0360107422.0430297852-.0039672852.0050048828-.3460083008.4189453125-.0040283203.0060424805-.033996582.0419921875-.0050048828.0059814453-.3349609375.4270019531-.0040283203.0059814453-.0330200195.0420532227-.0039672852.0059814453-.3240356445.4349975586-.0039672852.0059814453-.0310058594.0419921875-.0040283203.0060424805-.3150024414.4429931641-.0029907227.0059814453-.0299682617.0419921875-.0040283203.0059814453-.3039550781.4510498047-.0030517578.0050048828-.0279541016.04296875-.0040283203.0050048828-.2940063477.4580078125-.0029907227.0059814453-.0269775391.0419921875-.0029907227.0060424805-.2840576172.4649658203-.0029907227.0050048828-.0249633789.0430297852-.0040283203.0050048828-.2730102539.4719848633-.0029907227.0059814453-.0239868164.0419921875-.0029907227.0050048828-.2640380859.4790039062-.0029907227.0050048828-.0230102539.0419921875-.001953125.0050048828-.2550048828.4860229492-.0020141602.0050048828-.0209960938.0409545898-.0029907227.0060424805-.2440185547.4909667969-.0029907227.0050048828-.0200195312.041015625-.0020141602.0050048828-.2349853516.4979858398-.0020141602.0050048828-.0189819336.041015625-.0020141602.0050048828-.2249755859.5009765625-.0189819336.0449829102-.2180175781.5140380859-.0189819336.0449829102-.2080078125.5180053711-.0170288086.0449829102-.1989746094.5230102539-.0159912109.0440063477-.1890258789.5280151367-.0150146484.04296875-.1799926758.5319824219-.0139770508.0430297852-.1699829102.5360107422-.0130004883.0419921875-.1610107422.5399780273-.0120239258.041015625-.1530151367.5440063477-.0109863281.0399780273-.1430053711.5469970703-.0100097656.0400390625-.133972168.5489501953-.008972168.0400390625-.125.5509643555-.0090332031.0390014648-.1159667969.5540161133-.0080566406.0380249023-.1079711914.5559692383-.007019043.0380249023-.0989990234.5570068359-.0059814453.0379638672-.091003418.5580444336-.0059814453.0369873047-.08203125.5589599609-.0050048828.0360107422-.0739746094.5599975586-.0040283203.0360107422-.0659790039.5599975586-.0029907227.0360107422-.0579833984.5599975586-.0030517578.0349731445-.049987793.5599975586-.0029907227.0340576172-.041015625.5589599609-.001953125.0350341797-.033996582.5579833984-.0020141602.033996582-.0260009766.5570068359-.0010375977.0329589844-.0189819336.5550537109-.0009765625.033996582-.0109863281.5529785156v.0330200195l-.0040283203.5529785156v.0289916992l.0029907227.6220092773v.0250244141l.0100097656.6199951172v.0260009766l.0159912109.6149902344.0010375977.0260009766.0219726562.6109619141.0009765625.0280151367.0289916992.6050415039.0010375977.0289916992.0360107422.6009521484.001953125.0290527344.0420532227.5959472656.001953125.0300292969.0490112305.5919799805.0029907227.0310058594.0560302734.5859985352.0029907227.0319824219.0629882812.5810546875.0029907227.0319824219.0700073242.5759887695.0040283203.033996582.076965332.5700073242.0050048828.033996582.0850219727.5659790039.0050048828.0350341797.091003418.5599975586.0069580078.0349731445.0980224609.5549926758.007019043.0360107422.1059570312.5490112305.0080566406.0369873047.1139526367.5430297852.0079956055.0379638672.1210327148.5370483398.0100097656.0390014648.1289672852.5309448242.0100097656.0400390625.1359863281.5249633789.0109863281.041015625.1450195312.5189819336.0120239258.041015625.1519775391.5130004883.0130004883.0419921875.1600341797.507019043.0139770508.0430297852.16796875.5.0160522461.0439453125.1759643555.4940185547.0159912109.0440063477.1849975586.4869995117.0170288086.0449829102.1929931641.4810180664.0180053711.0460205078.2009887695.4749755859.0200195312.0449829102.2099609375.4710083008.0030517578.0050048828.0189819336.041015625.0020141602.0050048828.2149658203.4569702148.0029907227.0050048828.0200195312.041015625.0020141602.0050048828.2239990234.4509887695.0029907227.0050048828.0209960938.041015625.0029907227.0059814453.2319946289.4429931641.0029907227.0050048828.0220336914.0419921875.0029907227.0050048828.241027832.4370117188.0029907227.0059814453.0239868164.041015625.0029907227.0059814453.2490234375.4299926758.0029907227.0050048828.0249633789.0419921875.0040283203.0060424805.2579956055.4229736328.0029907227.0059814453.0260009766.041015625.0040283203.0060424805.2669677734.4169921875.0029907227.0050048828.0280151367.0419921875.0029907227.0050048828.2760009766.410949707.0040283203.0050048828.0289916992.041015625.0029907227.0059814453.2860107422.4040527344.0029907227.0049438477.0300292969.041015625.0039672852.0050048828.2949829102.3980102539.0040283203.0050048828.0310058594.041015625.0039672852.0050048828.3040161133.3909912109.0040283203.0050048828.0319824219.0409545898.0040283203.0050048828.3139648438.3840332031.0040283203.0050048828.0329589844.0399780273.0040283203.0050048828.3239746094.3779907227.0040283203.0050048828.0349731445.0390014648.0040283203.0050048828.3330078125.3709716797.0050048828.0050048828.0349731445.0390014648.0050048828.0050048828.3430175781.3649902344.0050048828.0040283203.035949707.0379638672.0050048828.0050048828.3540039062.3580322266.0040283203.0050048828.0379638672.0369873047.0050048828.0050048828.3640136719.3519897461.0040283203.0040283203.0390014648.035949707.0049438477.0050048828.3740234375.3450317383.0050048828.0050048828.0390014648.0349731445.0050048828.0040283203.3789672852.3330078125.0060424805.0050048828.0520019531.0439453125.0069580078.0060424805.3570556641.2949829102.0049438477.0040283203.0390014648.0319824219.0060424805.0039672852.3699951172.291015625.0050048828.0040283203.0399780273.0310058594.0050048828.0039672852.3759765625.2819824219.0050048828.0040283203.0400390625.0299682617.0050048828.0030517578.3809814453.2729492188.0050048828.0040283203.041015625.0280151367.0049438477.0039672852.3860473633.2630004883.0050048828.0040283203.0409545898.0269775391.0060424805.0040283203.3909912109.2539672852.0050048828.0040283203.0409545898.0260009766.0050048828.0029907227.3970336914.2459716797.0050048828.0030517578.0409545898.0249633789.0050048828.0029907227.4020385742.2369995117.0050048828.0029907227.0419921875.0240478516.0050048828.0029907227.4069824219.2290039062.0050048828.001953125.041015625.0230102539.0050048828.0029907227.4129638672.2200317383.0050048828.0029907227.041015625.0209960938.0050048828.0029907227.41796875.2120361328.0050048828.0029907227.041015625.0200195312.0050048828.001953125.4210205078.2040405273.0449829102.0209960938.4339599609.1989746094.0450439453.0200195312.4400024414.1909790039.0440063477.0189819336.4449462891.1830444336.0430297852.0180053711.4509887695.174987793.0419921875.0169677734.4559936523.1680297852.0420532227.0150146484.4619750977.160949707.041015625.0140380859.466003418.1539916992.0409545898.0130004883.4720458984.1469726562.0390014648.0120239258.4779663086.1400146484.0380249023.0109863281.4829711914.1329956055.0369873047.0100097656.4880371094.1259765625.0369873047.0090332031.492980957.1199951172.0360107422.0079956055.4979858398.1140136719.033996582.0069580078.5040283203.1069946289.0330200195.007019043.508972168.1010131836.0319824219.0059814453.5130004883.0950317383.032043457.0050048828.5180053711.0889892578.0310058594.0050048828.5229492188.0830078125.0289916992.0039672852.5280151367.0770263672.0280151367.0039672852.5330200195.0720214844.0269775391.0029907227.5369873047.0659790039.0260009766.0040283203.5419921875.0599975586.0250244141.0029907227.5460205078.0560302734.0249633789.001953125.549987793.0510253906.0230102539.0020141602.5549926758.0449829102.0220336914.0020141602.5589599609.041015625.0220336914.001953125.5620117188.0360107422.0209960938.0009765625.5670166016.032043457.0189819336.0009765625.5709838867.0270385742.0189819336.0009765625.5740356445.0239868164h.0180053711l.5780029297.0200195312h.0180053711l.5809936523.0159912109h.0169677734l.5850219727.0120239258h.0159912109l.5889892578.0079956055h.0140380859l.5919799805.0050048828h.0139770508l.5939941406.001953125h.0159912109l.7260131836-.0029907227h.0180053711l.7269897461-.007019043.0180053711-.0009765625.7290039062-.0120239258.0159912109-.0009765625.7310180664-.0169677734.0170288086-.0010375977.4400024414-.0131835938-1.0672607422-12.7977294922-.2557983398-.0060424805h-.008972168l-.0109863281-.0010375977h-.0100097656l-.9370117188-.0379638672h-.0100097656l-.0119628906-.0010375977h-.0100097656l-.9050292969-.0529785156h-.0100097656l-.0129394531-.0010375977-.0100097656-.0009765625-.875-.0670166016-.0110473633-.0009765625-.0130004883-.0009765625-.0109863281-.0010375977-.8439941406-.0809936523-.0119628906-.0009765625-.0140380859-.0010375977-.0109863281-.001953125-.8140258789-.0940551758-.0119628906-.001953125-.0140380859-.0020141602-.0119628906-.0010375977-.783996582-.1089477539-.0120239258-.0020141602-.0159912109-.0020141602-.0120239258-.0020141602-.7539672852-.1220092773-.0140380859-.001953125-.0159912109-.0029907227-.0130004883-.0020141602-.7249755859-.1350097656-.0130004883-.0020141602-.0170288086-.0039672852-.0139770508-.0030517578-.6959838867-.1469726562-.0140380859-.0029907227-.0180053711-.0040283203-.0139770508-.0039672852-.66796875-.158996582-.0150146484-.0040283203-.0180053711-.0050048828-.0150146484-.0039672852-.6389770508-.1719970703-.0159912109-.0040283203-.0190429688-.0050048828-.0159912109-.0050048828-.6109619141-.1829833984-.0170288086-.0050048828-.0189819336-.007019043-.0170288086-.0049438477-.583984375-.1950073242-.0170288086-.0060424805-.0199584961-.0069580078-.0170288086-.0060424805-.5579833984-.2059936523-.0170288086-.0059814453-.0209960938-.0079956055-.0180053711-.007019043-.5309448242-.2169799805-.0180053711-.007019043-.0220336914-.008972168-.0180053711-.0079956055-.5059814453-.2270507812-.0180053711-.0079956055-.0219726562-.0109863281-.0180053711-.0079956055-.4810180664-.2369995117-.0189819336-.008972168-.0230102539-.0120239258-.0180053711-.0100097656-.45703125-.2459716797-.0189819336-.0100097656-.0230102539-.0130004883-.0189819336-.0109863281-.4329833984-.2550048828-.0190429688-.0120239258-.0229492188-.0139770508-.0190429688-.0120239258-.410949707-.2639770508-.0190429688-.0130004883-.0230102539-.0159912109-.0189819336-.0130004883-.3880004883-.2730102539-.0189819336-.0140380859-.0239868164-.0169677734-.0180053711-.0139770508-.3680419922-.282043457-.0189819336-.0149536133-.0219726562-.0180053711-.0190429688-.0150146484-.3469848633-.291015625-.0180053711-.0159912109-.0230102539-.0189819336-.0180053711-.0170288086-.326965332-.2990112305-.0180053711-.0169677734-.0220336914-.0209960938-.0179443359-.0170288086-.3090209961-.3079833984-.0170288086-.0180053711-.0209960938-.0219726562-.0169677734-.0180053711-.291015625-.3170166016-.0169677734-.0189819336-.0200195312-.0220336914-.0159912109-.0189819336-.2740478516-.3270263672-.0159912109-.0189819336-.0189819336-.0230102539-.0150146484-.0199584961-.2579956055-.3360595703-.0150146484-.0199584961-.0169677734-.0239868164-.0150146484-.0200195312-.2420043945-.3460083008-.0139770508-.0200195312-.0159912109-.0239868164-.0130004883-.0209960938-.2280273438-.3560180664-.0119628906-.0199584961-.0150146484-.0250244141-.0120239258-.0200195312-.2130126953-.3670043945-.0119628906-.0199584961-.0130004883-.0250244141-.0109863281-.0209960938-.1990356445-.3770141602-.0100097656-.0209960938-.0130004883-.0239868164-.0100097656-.0209960938-.1849975586-.3880004883-.008972168-.0200195312-.0109863281-.0249633789-.0090332031-.0200195312-.1709594727-.4000244141-.0090332031-.0199584961-.008972168-.0239868164-.0079956055-.0200195312-.158996582-.4110107422-.007019043-.0200195312-.0079956055-.0229492188-.007019043-.0190429688-.1459960938-.4240112305-.0059814453-.0189819336-.007019043-.0230102539-.0059814453-.0180053711-.1329956055-.4359741211-.0050048828-.0180053711-.007019043-.0219726562-.0050048828-.0180053711-.1199951172-.4470214844-.0039672852-.0180053711-.0060424805-.0209960938-.0039672852-.0169677734-.1080322266-.4600219727-.0029907227-.0159912109-.0050048828-.0209960938-.0029907227-.0170288086-.0960083008-.4710083008-.0029907227-.0159912109-.0040283203-.0189819336-.0029907227-.0159912109-.0830078125-.4830322266-.0029907227-.0159912109-.0029907227-.0180053711-.0020141602-.0150146484-.0709838867-.4949951172-.0020141602-.0149536133-.0029907227-.0170288086-.0020141602-.0150146484-.0599975586-.5059814453-.0009765625-.0139770508-.0020141602-.0159912109-.0009765625-.0140380859-.0430297852-.4569702148-.0039672852-.1430053711.0139770508-.1440429688.0319824219-.1399536133.0500488281-.1350097656.0669555664-.1270141602.0830078125-.117980957.0970458984-.1069946289.1089477539-.0930175781.1210327148-.0780029297.1300048828-.0620117188.1359863281-.0459594727.1420288086-.0270385742.1429443359-.008972168h52.0330810547c1.7220458984-.0506591797,3.1034545898-1.459777832,3.1818237305-3.2265014648l.003112793.1165161133v-.0000610352l-.0200195312-.75ZM191.3817289633,75.9340435618l-.0310058594.1420288086-.0490112305.1359863281-.0659790039.1300048828-.08203125.1190185547-.0969848633.1079711914-.1110229492.0950317383-.1209716797.0799560547-.1310424805.0629882812-.1369628906.0460205078-.1430053711.0280151367-.1450195312.0100097656h-37.492980957l-.1500244141-.0100097656-.1469726562-.0300292969-.1420288086-.049987793-.1349487305-.0679931641-.1240234375-.0850219727-.1110229492-.1009521484-.0969848633-.1150512695-.0809936523-.126953125-.0629882812-.1360473633-.0440063477-.1439819336-.0250244141-.1480102539-.0050048828-.1510009766.0150146484-.1489868164.0620117188-.3619995117.0020141602-.0130004883.0029907227-.0169677734.0029907227-.0130004883.0969848633-.5.0029907227-.0140380859.0040283203-.0169677734.0029907227-.0140380859.1080322266-.4859619141.0029907227-.0140380859.0039672852-.0180053711.0040283203-.0149536133.117980957-.4730224609.0040283203-.0150146484.0050048828-.0189819336.0039672852-.0150146484.1290283203-.4599609375.0039672852-.0150146484.0059814453-.0200195312.0050048828-.0150146484.1390380859-.4469604492.0050048828-.0170288086.0069580078-.0189819336.0050048828-.0170288086.1500244141-.4329833984.0059814453-.0169677734.007019043-.0209960938.007019043-.0160522461.1599731445-.4209594727.007019043-.0170288086.0079956055-.0209960938.0069580078-.0180053711.1710205078-.4079589844.0079956055-.0170288086.0090332031-.0219726562.0079956055-.0170288086.1820068359-.3959960938.008972168-.0170288086.0100097656-.0219726562.008972168-.0180053711.1929931641-.3829956055.0090332031-.0180053711.0120239258-.0219726562.008972168-.0180053711.2039794922-.3710327148.0100097656-.0180053711.0130004883-.0229492188.0109863281-.0180053711.2150268555-.3590087891.0109863281-.0180053711.0140380859-.0220336914.0119628906-.0180053711.2260131836-.3479614258.0120239258-.0180053711.0149536133-.0219726562.0130004883-.0180053711.2380371094-.3359985352.0130004883-.0180053711.0159912109-.0220336914.0139770508-.0180053711.25-.325012207.0140380859-.0179443359.0169677734-.0209960938.0139770508-.0170288086.2630004883-.3150024414.0150146484-.0169677734.0180053711-.0210571289.0150146484-.0169677734.2760009766-.3049926758.0150146484-.0159912109.0189819336-.0200195312.0159912109-.0170288086.2890014648-.2939453125.0170288086-.0160522461.0189819336-.0199584961.0169677734-.0150146484.3030395508-.2849731445.0169677734-.0150146484.0200195312-.0190429688.0169677734-.0149536133.3180541992-.2750244141.0169677734-.0139770508.0209960938-.0180053711.0170288086-.0140380859.3330078125-.2659912109.0169677734-.0130004883.0220336914-.0169677734.0169677734-.0130004883.3489990234-.2560424805.0170288086-.0130004883.0219726562-.0159912109.0180053711-.0119628906.3649902344-.2470092773.0170288086-.0120239258.0219726562-.0139770508.0180053711-.0120239258.382019043-.2379760742.0169677734-.0100097656.0220336914-.0139770508.0180053711-.0100097656.3989868164-.2290039062.0180053711-.0100097656.0219726562-.0120239258.0180053711-.008972168.416015625-.2189941406.0180053711-.0100097656.0209960938-.0100097656.0180053711-.008972168.4349975586-.2100219727.0169677734-.0079956055.0220336914-.0100097656.0169677734-.0079956055.4540405273-.200012207.0169677734-.0069580078.0209960938-.0090332031.0170288086-.0069580078.4729614258-.1900024414.0170288086-.007019043.0200195312-.0079956055.0169677734-.0059814453.492980957-.1800537109.0160522461-.0059814453.0199584961-.007019043.0159912109-.0050048828.5130004883-.1699829102.0160522461-.0050048828.0189819336-.0059814453.0159912109-.0050048828.5330200195-.1599731445.0149536133-.0040283203.0190429688-.0059814453.0149536133-.0040283203.5540161133-.1489868164.0150146484-.0040283203.0180053711-.0039672852.0150146484-.0040283203.5749511719-.1380004883.0140380859-.0029907227.0169677734-.0039672852.0150146484-.0029907227.5960083008-.1270141602.0139770508-.0029907227.0159912109-.0029907227.0140380859-.0030517578.617980957-.1149902344.0130004883-.0029907227.0159912109-.0029907227.0130004883-.0020141602.6400146484-.1040039062.0120239258-.0020141602.0159912109-.001953125.0119628906-.0020141602.6620483398-.0919799805.0119628906-.0020141602.0150146484-.0020141602.0120239258-.0009765625.6829833984-.0809936523.0119628906-.0010375977.0140380859-.0020141602.0109863281-.0009765625.70703125-.0690307617.0099487305-.0009765625.0140380859-.0009765625.0109863281-.0010375977.7290039062-.0559692383.0100097656-.0010375977.0130004883-.0009765625h.0100097656l.751953125-.0440063477.0100097656-.0009765625.0120239258-.0010375977h.0100097656l.7739868164-.0319824219h.0209960938l.0100097656-.0009765625.7969970703-.0190429688h.0299682617l.8210449219-.0069580078h.0260009766l.8239746094.0059814453h.0260009766l.8020019531.0170288086.0079956055.0009765625h.0189819336l.7800292969.0280151367.008972168.0009765625h.0110473633l.008972168.0009765625.757019043.0390014648.0099487305.0010375977.0110473633.0009765625h.0100097656l.7349853516.0510253906.0100097656.0009765625.0119628906.0010375977.0100097656.0009765625.7139892578.0620117188.0100097656.0009765625.0130004883.0010375977.0100097656.0009765625.6920166016.0729980469.0109863281.0009765625.0130004883.0020141602.0109863281.0009765625.6699829102.0850219727.0120239258.0010375977.0139770508.001953125.0110473633.0020141602.6479492188.0950317383.0130004883.001953125.0140380859.0020141602.0130004883.0020141602.6259765625.1069946289.0130004883.0020141602.0150146484.0029907227.0130004883.0020141602.6049804688.1170043945.0130004883.0029907227.0170288086.0029907227.0130004883.0029907227.583984375.1279907227.0139770508.0029907227.0170288086.0040283203.0139770508.0039672852.5620117188.1380004883.0150146484.0040283203.0180053711.0039672852.0139770508.0040283203.541015625.1489868164.0159912109.0050048828.0180053711.0050048828.0159912109.0050048828.5200195312.158996582.0159912109.0050048828.0189819336.0059814453.0159912109.0050048828.4990234375.1699829102.0169677734.0050048828.0200195312.0079956055.0170288086.0060424805.4790039062.1789550781.0169677734.0060424805.0209960938.008972168.0170288086.0060424805.458984375.1889648438.0170288086.0079956055.0219726562.0090332031.0170288086.0079956055.4389648438.1989746094.0180053711.0079956055.0219726562.0109863281.0190429688.0079956055.4190063477.2080078125.0180053711.0100097656.0229492188.0120239258.0180053711.008972168.4010009766.2180175781.0190429688.0100097656.0229492188.0130004883.0180053711.0109863281.382019043.2269897461.0189819336.0120239258.0230102539.0139770508.0189819336.0120239258.3640136719.2359619141.0190429688.0120239258.0229492188.0159912109.0190429688.0130004883.3469848633.2460327148.0189819336.0130004883.0230102539.0169677734.0180053711.0150146484.3300170898.2539672852.0189819336.0150146484.0230102539.0180053711.0180053711.0159912109.3139648438.2640380859.0180053711.0159912109.0230102539.0199584961.0180053711.0160522461.2979736328.2739868164.0180053711.0169677734.0209960938.0209960938.0180053711.0170288086.2830200195.283996582.0169677734.0180053711.0209960938.0219726562.0170288086.0180053711.2689819336.2940063477.0159912109.0189819336.0200195312.0230102539.0159912109.0190429688.2550048828.3049926758.0159912109.0189819336.0190429688.0239868164.0149536133.0190429688.241027832.3169555664.0150146484.0200195312.0180053711.0239868164.0139770508.0200195312.2290039062.3289794922.0130004883.0200195312.0169677734.0249633789.0130004883.0200195312.216003418.341003418.0120239258.0209960938.0159912109.0250244141.0120239258.0199584961.2030029297.3540039062.0119628906.0209960938.0130004883.0250244141.0120239258.0200195312.1909790039.367980957.0100097656.0200195312.0130004883.0249633789.0100097656.0209960938.1790161133.3810424805.008972168.0199584961.0109863281.0250244141.0090332031.0200195312.16796875.3959960938.0079956055.0199584961.0100097656.0240478516.0079956055.0199584961.1550292969.4110107422.007019043.0189819336.008972168.0240478516.007019043.0199584961.1430053711.4260253906.0069580078.0189819336.007019043.0230102539.0059814453.0189819336.132019043.4410400391.0050048828.0180053711.0059814453.0229492188.0050048828.0180053711.1199951172.45703125.0040283203.0180053711.0059814453.0219726562.0040283203.0180053711.1079711914.4730224609.0029907227.0169677734.0050048828.0200195312.0029907227.0180053711.0960083008.4890136719.0029907227.0159912109.0029907227.0199584961.0030517578.0160522461.0829467773.5059814453.0030517578.0150146484.0029907227.0189819336.001953125.0159912109.0710449219.5219726562.0020141602.0150146484.001953125.0180053711.0020141602.0150146484.0570068359.5260009766.0059814453.1450195312-.0119628906.1449584961Z"/>
  <g>
    <g>
      <polygon class="cls-6" points="176.906246938 101.7456953239 178.4436621623 115.5611341816 172.6202489826 115.9353690561 171.1497038168 103.3376726282 176.906246938 101.7456953239"/>
      <polygon class="cls-12" points="182.5079295394 100.891259131 184.0627779443 114.7040388698 178.2962494623 115.5836193446 176.7588342379 101.7681804868 182.5079295394 100.891259131"/>
      <polygon class="cls-13" points="174.3084253114 110.8197208765 174.8292555154 115.7934098207 174.2544537021 115.8303487907 173.7455691529 110.8838873343 174.3084253114 110.8197208765"/>
      <polygon class="cls-13" points="173.4504862726 102.70138912 173.98846666 107.8060694376 173.4356690349 107.8903887987 172.9019869545 102.8704956927 173.4504862726 102.70138912"/>
      <polygon class="cls-13" points="175.6467147195 110.7475861475 176.1684223998 115.6864843547 175.6055662414 115.7506508125 175.0927466389 110.7892488456 175.6467147195 110.7475861475"/>
      <polygon class="cls-13" points="174.7138074756 102.3407449166 175.255921898 107.6100982576 174.7663712504 107.6874140471 174.224462838 102.4871365748 174.7138074756 102.3407449166"/>
      <polygon class="cls-13" points="173.0950972687 110.9357710517 173.597537344 115.8725647563 173.0493593586 115.9077927769 172.5322411103 110.9999375096 173.0950972687 110.9357710517"/>
      <polygon class="cls-13" points="172.2715829438 103.0274159219 172.7859300359 107.9894948274 172.2230738774 108.0536612853 171.7132359432 103.1950500972 172.2715829438 103.0274159219"/>
      <polygon class="cls-13" points="176.8976716286 110.6642447624 177.4193793089 115.6031429696 176.8565231505 115.6673094274 176.343703548 110.7059074605 176.8976716286 110.6642447624"/>
      <polygon class="cls-13" points="175.7790617407 102.0232641847 176.3664279898 107.437980923 175.9409432941 107.5081859041 175.3693969589 102.1707126016 175.7790617407 102.0232641847"/>
    </g>
    <polygon class="cls-6" points="200.3412253397 99.1277301272 201.688989073 111.5653253461 183.9501590548 114.0628614017 182.5631298222 101.539645642 200.3412253397 99.1277301272"/>
    <polygon class="cls-3" points="204.0642091319 98.7201862187 205.4048207608 111.111351836 201.7211044313 111.5514886313 200.373340698 99.1138934124 204.0642091319 98.7201862187"/>
    <polyline class="cls-3" points="200.727528893 101.4478534791 204.3565633383 101.0296273664 204.4075498987 101.6293970441 200.7981219682 102.1014372859 200.727528893 101.4478534791"/>
    <polygon class="cls-3" points="205.131259584 107.8800634396 205.1950898428 108.4700413957 201.5173213546 108.9693017461 201.4545905671 108.3124250464 205.131259584 107.8800634396"/>
    <polygon class="cls-3" points="204.7865189598 105.5854366668 204.8574793008 106.1821597025 201.1822020057 106.6653524357 201.1183051688 106.0756919685 204.7865189598 105.5854366668"/>
    <polygon class="cls-3" points="204.5059816137 103.3547933882 204.5646738749 103.9302155604 200.9142972956 104.4477853306 200.8503796561 103.7917742389 204.5059816137 103.3547933882"/>
    <g>
      <polygon class="cls-7" points="203.1377862459 131.0906930839 203.1378284174 131.0911539606 203.1377862459 131.0906930839 203.1377862459 131.0906930839"/>
      <polygon class="cls-5" points="201.5498596289 110.3930123471 201.5499018005 110.3934732239 203.3207758006 110.18762548 202.2832607921 99.9137176332 200.4580530737 100.1331655793 201.5498596289 110.3930123471 201.5498596289 110.3930123471"/>
      <polygon class="cls-13" points="197.1441006673 103.1997911548 185.7317615456 104.7941234015 186.3393201067 110.1272557818 197.806984208 108.4102890823 198.1136554907 110.8209435698 201.5789892864 110.3750090123 200.4871827312 100.1151622444 200.4871156677 100.1145329979 196.8100092939 100.5736345799 197.1441006673 103.1997911548"/>
    </g>
    <polygon class="cls-4" points="204.0642091319 98.7201862187 204.1743075903 99.737817427 200.4580530737 100.1331655793 200.3412253397 99.1277301272 204.0642091319 98.7201862187"/>
    <polygon class="cls-4" points="205.2811147745 109.9679473396 205.4048207608 111.111351836 201.6867293185 111.5444716087 201.5498596289 110.3930123471 205.2811147745 109.9679473396"/>
  </g>
  <path class="cls-6" d="M421.5181513975,28.0147320383c-4.580078125,0-8.29296875,3.712890625-8.29296875,8.29296875s3.712890625,8.29296875,8.29296875,8.29296875,8.29296875-3.712890625,8.29296875-8.29296875-3.712890625-8.29296875-8.29296875-8.29296875ZM418.8869868467,38.8540264719c-.239440918.268371582-.6283569336.268371582-.8677978516,0l-1.839050293-2.0610961914c-.239440918-.268371582-.239440918-.7042236328,0-.9725952148l1.839050293-2.0610961914c.239440918-.268371582.6283569336-.268371582.8677978516,0h-.0018920898c.239440918.268371582.239440918.7042236328,0,.9725952148l-1.4042358398,1.5758666992,1.4061279297,1.5737304688c.239440918.268371582.239440918.7042236328,0,.9725952148ZM423.3332759092,31.6874004954l-2.4520874023,9.6184692383c-.0938720703.3649902344-.4329223633.5775146484-.758605957.4722900391-.3256835938-.1051635742-.5153198242-.485168457-.4214477539-.8501586914l2.4520874023-9.6184692383c.0938720703-.3649902344.4329223633-.5775146484.758605957-.4723510742.3256225586.1052246094.5153198242.4852294922.4214477539.8502197266ZM426.8561640928,36.795066511l-1.839050293,2.0610961914c-.239440918.268371582-.6282958984.268371582-.8677978516,0-.239440918-.268371582-.239440918-.7042236328,0-.9725952148l1.4061279297-1.5758666992-1.4061279297-1.5758666992c-.239440918-.268371582-.239440918-.7042236328,0-.9725952148v.0021362305c.2395019531-.268371582.6283569336-.268371582.8677978516,0l1.839050293,2.0610961914c.2395019531.268371582.2395019531.7042236328,0,.9725952148Z"/>
  <g>
    <path class="cls-13" d="M127.4105011834,0h-21.7031915843l-6.3832916425,1.8485448589-4.0853066512,2.7728172883-3.3193116541,3.6970897177-15.8305632733,28.0362636929h-15.3198999419l-.2553316657,1.2323632392,5.8726283111,10.4750875336h34.7251065349L127.4105011834,1.5404540491V0Z"/>
    <path class="cls-1" d="M0,.3080908098l32.171789878,57.304890625h31.1504632152v-.9242724294L37.0230915262,10.1669967238l-3.5746433198-4.6213621472-5.106633314-3.6970897177-4.3406383169-1.5404540491H0Z"/>
    <path class="cls-1" d="M64.3435797559,57.9210722446l.2553316657,1.2323632392,26.0438299012,46.2136214718,3.8299749855,4.929452957,5.106633314,3.6970897177,5.106633314,1.5404540491,22.9798499128-.3080908098-3.5746433198-7.0860886257-28.5971465582-50.2188019993h-31.1504632152Z"/>
    <path class="cls-13" d="M67.1522280786,78.2550656922l-6.1279599768-10.7831783434H26.8098248983L4.0853066512,107.5236926243l-4.0853066512,8.0103610551h22.7245182471l3.0639799884-.6161816196,4.0853066512-1.8485448589,4.0853066512-3.3889989079,2.8086483227-3.6970897177,13.532578282-24.3391739751,1.7873216599-2.4647264785h15.0645682762v-.9242724294Z"/>
  </g>
</svg>